<?xml version="1.0" standalone="no"?>
<!DOCTYPE svg PUBLIC "-//W3C//DTD SVG 20010904//EN"
 "http://www.w3.org/TR/2001/REC-SVG-20010904/DTD/svg10.dtd">
<svg version="1.0" xmlns="http://www.w3.org/2000/svg"
 width="108.000000pt" height="108.000000pt" viewBox="0 0 108.000000 108.000000"
 preserveAspectRatio="xMidYMid meet">
<metadata>
Created by potrace 1.11, written by Peter Selinger 2001-2013
</metadata>
<g transform="translate(0.000000,108.000000) scale(0.100000,-0.100000)"
fill="#000000" stroke="none">
<path d="M0 540 l0 -540 540 0 540 0 0 540 0 540 -540 0 -540 0 0 -540z m745
420 c43 -21 88 -49 101 -61 29 -27 109 -182 119 -229 4 -19 15 -64 26 -98 28
-96 14 -164 -62 -292 -22 -37 -108 -130 -118 -127 -3 1 -18 -7 -33 -17 -15
-10 -31 -15 -36 -12 -5 3 -17 -3 -27 -14 -16 -18 -31 -20 -149 -20 -133 0
-202 12 -263 44 -52 27 -146 127 -175 186 -51 106 -61 154 -55 248 5 74 28
165 47 182 3 3 13 21 23 40 24 44 125 131 173 148 20 7 52 20 71 29 52 24 90
31 190 32 87 1 94 -1 168 -39z"/>
<path d="M418 927 c-58 -22 -121 -63 -162 -105 -46 -47 -84 -104 -66 -100 7 2
20 -19 29 -49 10 -28 25 -63 35 -77 13 -21 14 -26 2 -26 -7 0 -18 -6 -24 -12
-12 -15 -20 -63 -10 -63 3 0 18 -11 33 -25 15 -14 36 -24 49 -22 18 2 24 -4
34 -42 13 -51 37 -69 91 -68 50 0 63 4 84 27 17 20 18 19 13 -30 -3 -27 -5
-51 -5 -52 -1 -1 -18 -7 -38 -13 -47 -13 -92 -52 -96 -81 -6 -57 206 -67 319
-16 56 26 186 138 140 121 -14 -5 -17 -4 -12 5 4 6 4 11 -1 10 -21 -4 -24 2
-12 19 13 15 12 16 -3 4 -14 -11 -24 -11 -55 -1 -48 15 -67 20 -73 20 -12 0
-49 43 -44 50 3 5 1 9 -5 9 -6 0 -6 11 -1 29 4 16 6 32 2 35 -3 3 4 6 16 6 12
0 22 -5 22 -12 0 -6 3 -8 7 -4 5 4 -1 14 -11 22 -11 8 -18 14 -15 15 2 0 24 2
49 5 111 11 166 37 152 73 -4 10 -1 12 9 6 10 -6 9 -3 -2 11 -9 10 -19 29 -22
42 -6 26 25 106 38 94 4 -4 1 7 -8 23 -23 46 -105 120 -167 151 -47 24 -69 28
-155 31 -67 2 -112 -1 -137 -10z"/>
<path d="M893 698 c-2 -16 1 -18 10 -9 7 7 8 14 1 21 -6 6 -10 2 -11 -12z"/>
<path d="M168 693 c0 -10 0 -29 1 -43 1 -20 -1 -22 -9 -10 -8 13 -10 12 -10
-3 0 -39 25 -9 27 31 1 41 -5 60 -9 25z"/>
<path d="M908 668 c-4 -9 -2 -18 3 -20 5 -2 14 -41 18 -88 l8 -85 1 65 c1 72
-19 157 -30 128z"/>
<path d="M142 580 c0 -14 2 -19 5 -12 2 6 2 18 0 25 -3 6 -5 1 -5 -13z"/>
<path d="M143 489 c4 -74 51 -171 111 -232 49 -48 103 -83 114 -73 3 3 0 6 -7
6 -15 0 -44 67 -37 86 3 8 2 14 -3 14 -12 0 -23 78 -14 93 11 18 12 36 3 42
-5 3 -7 -5 -5 -17 4 -19 -1 -17 -28 15 -19 20 -39 37 -45 37 -7 0 -12 5 -12
10 0 6 -12 15 -27 21 -22 8 -24 12 -13 19 12 8 11 10 -7 10 -12 0 -24 6 -27
13 -3 6 -5 -13 -3 -44z"/>
<path d="M705 460 c-3 -5 -1 -10 4 -10 6 0 11 5 11 10 0 6 -2 10 -4 10 -3 0
-8 -4 -11 -10z"/>
<path d="M916 444 c-5 -10 -10 -30 -11 -44 -2 -21 -1 -19 12 9 7 18 12 38 10
44 -2 6 -7 2 -11 -9z"/>
<path d="M882 363 c1 -5 -4 -19 -11 -33 l-12 -25 20 25 c23 28 26 40 11 40 -5
0 -9 -3 -8 -7z"/>
<path d="M777 339 c7 -7 15 -10 18 -7 3 3 -2 9 -12 12 -14 6 -15 5 -6 -5z"/>
<path d="M410 270 c-9 -6 -10 -10 -3 -10 6 0 15 5 18 10 8 12 4 12 -15 0z"/>
</g>
</svg>
